<svg id="Capa_1" enable-background="new 0 0 512 512" height="512" viewBox="0 0 512 512" width="512" xmlns="http://www.w3.org/2000/svg"><g clip-rule="evenodd" fill-rule="evenodd"><path d="m146.772 119.635c0-45.086-59.032-65.499-83.818-37.269 49.143 8.751 83.818 83.328 83.818 139.354 0-12.718 0-25.417 0-38.251 0-13.569 0-27.289 0-41.345 0-7.394 0-14.882 0-22.489z" fill="#60a4ff"/><path d="m146.772 221.72c0-56.026-34.675-130.603-83.818-139.354 24.975 33.968 21.8 74.222 13.613 107.636-11.809 48.197-6.961 124.233 70.205 124.233 0-32.312 0-62.468 0-92.515z" fill="#a0c8ff"/><path d="m204.483 314.236h-57.711c0 40.675-21.57 78.261-56.585 98.598 48.668-2.988 93.07-18.903 114.296-98.598z" fill="#e8eaf0"/><path d="m307.517 314.236c21.226 79.695 65.628 95.61 114.296 98.598-35.015-20.337-56.585-57.923-56.585-98.598z" fill="#e8eaf0"/><path d="m365.228 314.236c77.166 0 82.014-76.036 70.205-124.233-8.187-33.414-11.362-73.668 13.613-107.636-49.143 8.751-83.818 83.328-83.818 139.354z" fill="#a0c8ff"/><path d="m365.228 221.72c0-56.026 34.675-130.603 83.818-139.354-24.786-28.231-83.818-7.817-83.818 37.269v22.489 41.106.239z" fill="#60a4ff"/><path d="m365.228 142.124c0-50.005-33.322-76.013-71.241-85.838-12.506-3.24-25.511-4.72-37.987-4.72-12.475 0-25.481 1.48-37.987 4.72-37.919 9.825-71.241 35.832-71.241 85.838v41.345c0-60.046 53.413-90.534 99.332-94.399 4.019-4.18 7.781-6.834 9.896-6.834s5.877 2.654 9.896 6.834c45.859 3.86 99.191 34.272 99.333 94.159-.001-13.49-.001-27.132-.001-41.105z" fill="#ff5a58"/><path d="m282.069 121.635c0-11.218-8.549-24.636-16.173-32.565-4.019-4.18-7.781-6.834-9.896-6.834s-5.877 2.654-9.896 6.834c-7.623 7.928-16.173 21.347-16.173 32.565 0 2.714.431 5.353 1.229 7.847 3.371 10.54 13.285 18.473 24.84 18.429 11.555.044 21.469-7.89 24.84-18.429.797-2.494 1.229-5.133 1.229-7.847z" fill="#ffc144"/><path d="m229.932 121.635c0-11.218 8.549-24.637 16.173-32.565-45.919 3.865-99.332 34.353-99.332 94.399v38.251c0-53.612 42.581-83.664 84.388-92.239-.798-2.493-1.229-5.132-1.229-7.846z" fill="#ff9346"/><path d="m265.896 89.07c7.623 7.928 16.173 21.347 16.173 32.565 0 2.714-.431 5.353-1.23 7.846 41.809 8.576 84.39 38.628 84.39 92.24 0-12.718 0-25.417 0-38.251 0-.08 0-.16 0-.239-.143-59.889-53.475-90.301-99.333-94.161z" fill="#ff9346"/><path d="m256 51.567c12.475 0 25.481 1.48 37.987 4.72.195-1.686.292-3.383.292-5.081 0-22.757-17.138-41.206-38.279-41.206s-38.279 18.448-38.279 41.206c0 1.698.098 3.396.292 5.08 12.506-3.239 25.512-4.719 37.987-4.719z" fill="#ff5a58"/><path d="m303.11 314.236h4.407 57.711c0-32.313 0-62.469 0-92.515 0-53.612-42.581-83.664-84.388-92.239-3.371 10.54-13.285 18.473-24.84 18.429-11.555.044-21.469-7.89-24.839-18.43-41.809 8.576-84.39 38.628-84.39 92.24v92.515h47.471 10.24.448l14.439 152.906c1.802 19.086 15.592 34.859 34.65 34.859 19.057 0 32.848-15.774 34.65-34.859z" fill="#60a4ff"/></g><path d="m266.407 304.235h-24.772c-5.523 0-10 4.478-10 10s4.477 10 10 10h24.772c5.523 0 10-4.478 10-10s-4.477-10-10-10z"/><path d="m261.457 363.995h-14.873c-5.523 0-10 4.478-10 10s4.477 10 10 10h14.873c5.523 0 10-4.478 10-10s-4.477-10-10-10z"/><path d="m261.457 423.755h-14.873c-5.523 0-10 4.478-10 10s4.477 10 10 10h14.873c5.523 0 10-4.478 10-10s-4.477-10-10-10z"/><path d="m266.407 254.437h-24.772c-5.523 0-10 4.478-10 10s4.477 10 10 10h24.772c5.523 0 10-4.478 10-10s-4.477-10-10-10z"/><path d="m209.571 209.186c-.016 0-.031 0-.047 0l-19.849.091c-5.522.025-9.979 4.522-9.954 10.046.025 5.507 4.498 9.954 9.999 9.954h.047l19.849-.091c5.522-.025 9.979-4.523 9.954-10.046-.025-5.507-4.497-9.954-9.999-9.954z"/><path d="m328.319 219.322c.025-5.523-4.432-10.021-9.954-10.046l-19.849-.091c-.016 0-.031 0-.047 0-5.501 0-9.974 4.447-9.999 9.954-.025 5.522 4.432 10.021 9.954 10.046l19.849.091h.047c5.501 0 9.974-4.447 9.999-9.954z"/><path d="m456.561 75.769c-14.062-16.016-37.998-20.77-60.983-12.111-15 5.65-26.575 15.687-33.406 28.274-6.607-11.011-15.67-20.521-27.063-28.286-9.076-6.187-19.515-11.161-30.887-14.814-1.174-27.137-22.352-48.832-48.222-48.832s-47.048 21.695-48.223 48.832c-11.372 3.653-21.811 8.627-30.887 14.814-11.393 7.766-20.456 17.276-27.063 28.286-6.831-12.588-18.407-22.624-33.406-28.274-22.983-8.659-46.921-3.906-60.982 12.111-3.098 3.528-3.324 8.738-.542 12.521 5.054 6.874 9.066 14.403 11.924 22.377 1.863 5.198 7.587 7.906 12.788 6.039 5.199-1.863 7.903-7.588 6.04-12.787-.043-.119-.089-.237-.133-.355 10.944 8.403 21.14 20.986 29.828 37.062 13.417 24.826 21.427 55.142 21.427 81.096v82.006c-16.957-1.796-30.135-8.339-39.261-19.518-22.343-27.369-15.258-72.678-12.554-85.912 1.105-5.411-2.385-10.694-7.796-11.8-5.41-1.106-10.694 2.385-11.799 7.796-3.149 15.416-11.256 68.373 16.657 102.564 12.942 15.853 31.181 24.886 54.314 26.931-3.078 33.296-22.093 63.512-51.167 80.398-4.009 2.328-5.892 7.106-4.549 11.543 1.342 4.438 5.57 7.366 10.185 7.086 39.254-2.41 81.355-12.889 108.169-65.351l10.446 110.617c2.402 25.447 21.161 43.918 44.605 43.918s42.203-18.471 44.605-43.918l11.094-117.479c26.567 58.429 70.571 69.701 111.48 72.213.207.013.413.019.618.019 4.38 0 8.285-2.866 9.567-7.104 1.342-4.437-.541-9.215-4.549-11.543-29.074-16.887-48.089-47.103-51.167-80.398 23.684-2.089 42.22-11.494 55.199-28.037 22.906-29.196 22.395-74.999 14.278-108.128-10.415-42.509-6.616-74.072 11.957-99.333 2.782-3.785 2.556-8.995-.542-12.523zm-81.333 43.866c0-19.862 14.154-32.271 27.4-37.262 5.331-2.008 10.68-2.986 15.745-2.986 2.601 0 5.126.258 7.537.767-18.109 9.855-34.606 27.871-47.522 52.219-1.086 2.048-2.14 4.131-3.16 6.242zm-155.289 2.283c-21.023 5.863-42.766 17.295-58.749 34.99 9.971-28.169 35.539-46.07 63.311-53.827-2.582 5.588-4.57 12.013-4.57 18.554.001.094.007.188.008.283zm19.993-.283c0-8.275 7.367-19.183 13.049-25.304.242-.23.47-.474.688-.727.834-.863 1.622-1.61 2.332-2.216.708.604 1.495 1.35 2.327 2.211.22.255.45.502.694.734 5.682 6.121 13.047 17.028 13.047 25.302 0 4.245-1.791 8.463-4.913 11.573-3.045 3.034-6.971 4.702-11.135 4.702-.02 0-.04 0-.059 0-.02 0-.039 0-.058 0-4.089 0-8.015-1.668-11.06-4.702-3.122-3.11-4.912-7.328-4.912-11.573zm47.567-18.554c27.772 7.757 53.34 25.658 63.311 53.828-15.983-17.696-37.725-29.129-58.749-34.991.001-.094.007-.188.007-.282 0-6.542-1.988-12.967-4.569-18.555zm-31.499-83.081c13.286 0 24.455 10.166 27.471 23.817-8.854-1.485-18.063-2.25-27.471-2.25s-18.617.765-27.471 2.25c3.016-13.651 14.185-23.817 27.471-23.817zm0 41.566c39.755 0 85.294 15.92 96.586 59.057-3.987-4.68-8.478-9.079-13.474-13.163-18.401-15.044-43.254-25.124-68.687-27.974-4.371-4-9.45-7.25-14.425-7.25-4.974 0-10.054 3.25-14.425 7.25-25.433 2.85-50.286 12.93-68.687 27.974-4.996 4.085-9.488 8.484-13.475 13.164 11.292-43.137 56.832-59.058 96.587-59.058zm-169.907 18.601c7.105-1.501 15.21-.834 23.279 2.206 13.246 4.99 27.4 17.399 27.4 37.262v18.813c-12.336-25.333-29.786-46.904-50.679-58.281zm38.992 316.944c17.89-20.017 29.068-45.619 31.281-72.876h34.741c-14.45 44.231-37.003 64.177-66.022 72.876zm184.326-149.6c-5.496-.517-10.376 3.518-10.896 9.016l-19.801 209.676c-1.21 12.818-10.081 25.797-24.693 25.797s-23.483-12.979-24.694-25.799l-19.8-209.675c-.519-5.498-5.396-9.539-10.896-9.016-5.499.52-9.535 5.397-9.016 10.896l4.328 45.828h-37.171v-82.515c0-45.909 34.319-71.297 68.9-80.659 1.443 2.269 3.131 4.395 5.058 6.315 6.822 6.796 15.756 10.533 25.097 10.533h.271c9.416 0 18.351-3.737 25.172-10.533 1.927-1.92 3.615-4.047 5.058-6.315 34.581 9.362 68.899 34.75 68.899 80.659v82.515h-41.129l4.328-45.828c.52-5.498-3.516-10.376-9.015-10.895zm77.503 149.6c-29.018-8.7-51.571-28.646-66.021-72.876h34.741c2.212 27.256 13.39 52.86 31.28 72.876zm28.219-113.706c-9.156 11.671-22.55 18.483-39.905 20.321v-82.006c0-25.493 7.786-55.391 20.828-79.976 8.79-16.569 19.204-29.561 30.41-38.172-9.003 24.905-9.216 54.237-.746 88.81 6.998 28.561 7.891 67.472-10.587 91.023z"/><path d="m82.38 161.874c5.523 0 10-4.478 10-10s-4.477-10-10-10h-.007c-5.523 0-9.996 4.478-9.996 10s4.48 10 10.003 10z"/></svg>