<svg id="Capa_1" enable-background="new 0 0 512 512" height="512" viewBox="0 0 512 512" width="512" xmlns="http://www.w3.org/2000/svg"><g clip-rule="evenodd" fill-rule="evenodd"><path d="m256 78.782c21.238 12.286 36.7 33.445 41.315 58.41 5.545-12.423 8.631-26.183 8.631-40.666 0-15.376-3.474-29.939-9.68-42.95-8.717-18.276-22.825-33.487-40.265-43.576-17.441 10.089-31.549 25.3-40.267 43.575-6.206 13.01-9.68 27.575-9.68 42.95 0 14.483 3.085 28.244 8.631 40.666 4.615-24.963 20.078-46.123 41.315-58.409z" fill="#b278d3"/><path d="m297.316 137.192c-4.615-24.964-20.078-46.124-41.315-58.41-21.238 12.286-36.701 33.445-41.316 58.409-.936 5.064-1.426 10.284-1.427 15.618v.019c0 13.556 3.158 26.374 8.773 37.757 10.165-5.29 21.718-8.279 33.97-8.279 12.251 0 23.805 2.99 33.968 8.283 5.617-11.388 8.775-24.205 8.775-37.761 0-.007 0-.013 0-.019-.002-5.333-.492-10.553-1.428-15.617z" fill="#60a4ff"/><path d="m206.054 96.526c0-15.376 3.474-29.94 9.68-42.95-15.048-13.548-33.9-22.203-53.874-24.85-12.252 15.995-19.463 35.446-20.523 55.666 13.588 4.812 26.343 12.653 37.215 23.525 10.241 10.241 17.79 22.153 22.653 34.858 4.242 2.919 8.28 6.263 12.053 10.035.001-5.335.491-10.555 1.427-15.618-5.546-12.422-8.631-26.183-8.631-40.666z" fill="#ff5a58"/><path d="m201.205 142.775c-20.916-14.389-46.811-18.417-70.517-12.087-6.33 23.705-2.302 49.601 12.087 70.516 2.918 4.243 6.263 8.28 10.034 12.053h.019c13.556 0 26.374 3.158 37.757 8.773 6.993-13.438 18.005-24.451 31.445-31.44-5.617-11.388-8.775-24.205-8.775-37.761 0-.006 0-.013 0-.019-3.77-3.771-7.808-7.116-12.05-10.035z" fill="#60a4ff"/><path d="m130.688 130.688c23.705-6.33 49.601-2.302 70.517 12.087-4.863-12.705-12.412-24.617-22.653-34.858-10.872-10.872-23.627-18.714-37.215-23.525-19.087-6.759-39.818-7.538-59.285-2.34-5.199 19.467-4.419 40.198 2.34 59.285 4.812 13.588 12.653 26.343 23.525 37.215 10.241 10.241 22.153 17.79 34.858 22.653-14.389-20.916-18.417-46.812-12.087-70.517z" fill="#b278d3"/><path d="m107.917 178.552c-10.872-10.872-18.714-23.627-23.525-37.215-20.22 1.06-39.671 8.271-55.666 20.523 2.647 19.974 11.302 38.827 24.85 53.874 13.01-6.206 27.574-9.68 42.95-9.68 14.483 0 28.244 3.085 40.666 8.631 5.064-.936 10.284-1.426 15.618-1.427-3.771-3.773-7.116-7.811-10.034-12.053-12.705-4.864-24.617-12.412-34.859-22.653z" fill="#ff5a58"/><path d="m78.783 256c12.286-21.238 33.445-36.701 58.41-41.316-12.423-5.545-26.183-8.631-40.666-8.631-15.376 0-29.94 3.474-42.95 9.68-18.277 8.719-33.487 22.826-43.577 40.267 10.089 17.441 25.299 31.549 43.575 40.266 13.01 6.206 27.575 9.68 42.95 9.68 14.483 0 28.244-3.085 40.666-8.631-24.963-4.614-46.122-20.077-58.408-41.315z" fill="#b278d3"/><path d="m137.192 214.684c-24.964 4.616-46.123 20.078-58.409 41.316 12.286 21.238 33.445 36.7 58.409 41.315 5.063.936 10.284 1.426 15.618 1.427h.019c13.556 0 26.374-3.158 37.757-8.773-5.29-10.165-8.279-21.718-8.279-33.97 0-12.251 2.99-23.805 8.283-33.968-11.388-5.617-24.205-8.775-37.761-8.775-.007 0-.013 0-.019 0-5.334.003-10.554.492-15.618 1.428z" fill="#60a4ff"/><path d="m96.526 305.946c-15.376 0-29.94-3.474-42.95-9.68-13.548 15.048-22.203 33.9-24.85 53.874 15.995 12.252 35.446 19.463 55.666 20.523 4.812-13.588 12.653-26.343 23.525-37.215 10.241-10.241 22.153-17.79 34.858-22.653 2.919-4.242 6.263-8.28 10.035-12.053-5.335-.001-10.555-.491-15.618-1.427-12.422 5.546-26.183 8.631-40.666 8.631z" fill="#ff5a58"/><path d="m142.776 310.795c-14.389 20.916-18.417 46.811-12.087 70.517 23.705 6.33 49.601 2.302 70.516-12.087 4.243-2.918 8.28-6.263 12.053-10.034 0-.007 0-.013 0-.019 0-13.556 3.158-26.374 8.773-37.758-13.438-6.993-24.451-18.005-31.44-31.445-11.388 5.617-24.205 8.775-37.761 8.775-.006 0-.013 0-.019 0-3.772 3.772-7.117 7.809-10.035 12.051z" fill="#60a4ff"/><path d="m130.688 381.312c-6.33-23.705-2.302-49.601 12.087-70.517-12.705 4.863-24.617 12.412-34.858 22.653-10.872 10.872-18.714 23.627-23.525 37.215-6.759 19.087-7.538 39.818-2.34 59.285 19.467 5.198 40.198 4.419 59.285-2.34 13.588-4.811 26.343-12.653 37.215-23.525 10.241-10.241 17.79-22.153 22.653-34.858-20.916 14.389-46.812 18.417-70.517 12.087z" fill="#b278d3"/><path d="m178.552 404.083c-10.872 10.872-23.627 18.714-37.215 23.525 1.06 20.22 8.271 39.671 20.523 55.666 19.974-2.647 38.827-11.302 53.874-24.85-6.206-13.01-9.68-27.574-9.68-42.95 0-14.483 3.085-28.244 8.631-40.666-.936-5.064-1.426-10.283-1.427-15.618-3.773 3.771-7.811 7.116-12.053 10.034-4.863 12.706-12.412 24.618-22.653 34.859z" fill="#ff5a58"/><path d="m256 433.218c-21.238-12.286-36.701-33.445-41.316-58.41-5.545 12.423-8.631 26.183-8.631 40.666 0 15.376 3.474 29.939 9.68 42.95 8.719 18.276 22.827 33.487 40.267 43.576 17.441-10.089 31.549-25.299 40.266-43.575 6.206-13.01 9.68-27.575 9.68-42.95 0-14.483-3.085-28.244-8.631-40.666-4.614 24.963-20.077 46.123-41.315 58.409z" fill="#b278d3"/><path d="m214.685 374.808c4.615 24.964 20.078 46.124 41.316 58.41 21.238-12.286 36.7-33.445 41.315-58.409.936-5.064 1.426-10.284 1.427-15.618 0-.006 0-.013 0-.019 0-13.556-3.158-26.374-8.773-37.758-10.165 5.29-21.718 8.279-33.97 8.279-12.251 0-23.805-2.99-33.968-8.283-5.617 11.388-8.775 24.205-8.775 37.761v.019c.002 5.335.492 10.554 1.428 15.618z" fill="#60a4ff"/><path d="m305.946 415.474c0 15.376-3.474 29.94-9.68 42.95 15.048 13.548 33.9 22.203 53.874 24.85 12.252-15.995 19.463-35.446 20.523-55.667-13.588-4.811-26.343-12.653-37.215-23.525-10.241-10.241-17.79-22.153-22.653-34.858-4.242-2.919-8.28-6.263-12.053-10.035-.001 5.335-.491 10.555-1.427 15.618 5.546 12.423 8.631 26.184 8.631 40.667z" fill="#ff5a58"/><path d="m310.795 369.225c20.916 14.389 46.811 18.417 70.517 12.087 6.33-23.705 2.302-49.601-12.087-70.516-2.918-4.243-6.263-8.28-10.034-12.053-.007 0-.013 0-.019 0-13.556 0-26.374-3.158-37.758-8.773-6.993 13.438-18.005 24.451-31.445 31.44 5.617 11.388 8.775 24.205 8.775 37.761v.019c3.772 3.771 7.809 7.116 12.051 10.035z" fill="#60a4ff"/><path d="m381.312 381.312c-23.705 6.33-49.601 2.302-70.517-12.087 4.863 12.705 12.412 24.617 22.653 34.858 10.872 10.872 23.627 18.714 37.215 23.525 19.087 6.759 39.818 7.538 59.285 2.34 5.199-19.467 4.419-40.198-2.34-59.285-4.811-13.588-12.653-26.343-23.525-37.215-10.241-10.241-22.153-17.79-34.858-22.653 14.389 20.916 18.417 46.812 12.087 70.517z" fill="#b278d3"/><path d="m404.083 333.448c10.872 10.872 18.714 23.627 23.525 37.215 20.22-1.06 39.671-8.271 55.666-20.523-2.647-19.973-11.302-38.827-24.85-53.874-13.01 6.206-27.574 9.68-42.95 9.68-14.483 0-28.244-3.085-40.666-8.631-5.064.936-10.283 1.426-15.618 1.427 3.771 3.773 7.116 7.811 10.034 12.053 12.706 4.864 24.618 12.412 34.859 22.653z" fill="#ff5a58"/><path d="m433.218 256c-12.286 21.238-33.445 36.7-58.41 41.315 12.423 5.545 26.183 8.631 40.666 8.631 15.376 0 29.939-3.474 42.95-9.68 18.276-8.718 33.487-22.825 43.576-40.266-10.089-17.441-25.299-31.549-43.575-40.266-13.01-6.206-27.575-9.68-42.95-9.68-14.483 0-28.244 3.085-40.666 8.631 24.963 4.615 46.123 20.077 58.409 41.315z" fill="#b278d3"/><path d="m374.808 297.316c24.964-4.615 46.124-20.078 58.41-41.315-12.286-21.238-33.445-36.701-58.409-41.316-5.064-.936-10.284-1.426-15.618-1.427-.006 0-.013 0-.019 0-13.556 0-26.374 3.158-37.758 8.773 5.29 10.165 8.279 21.718 8.279 33.97 0 12.251-2.99 23.805-8.283 33.968 11.388 5.617 24.205 8.775 37.761 8.775h.019c5.335-.003 10.555-.492 15.618-1.428z" fill="#60a4ff"/><path d="m415.475 206.054c15.376 0 29.94 3.474 42.95 9.68 13.548-15.048 22.203-33.9 24.85-53.874-15.995-12.252-35.446-19.463-55.667-20.523-4.811 13.588-12.653 26.343-23.525 37.215-10.241 10.241-22.153 17.79-34.858 22.653-2.918 4.242-6.263 8.28-10.035 12.053 5.335.001 10.555.491 15.618 1.427 12.423-5.546 26.184-8.631 40.667-8.631z" fill="#ff5a58"/><path d="m369.225 201.205c14.389-20.916 18.417-46.811 12.087-70.517-23.705-6.33-49.601-2.302-70.516 12.087-4.243 2.918-8.28 6.263-12.053 10.034v.019c0 13.556-3.158 26.374-8.773 37.757 13.438 6.993 24.451 18.005 31.44 31.445 11.388-5.617 24.205-8.775 37.761-8.775h.019c3.771-3.77 7.116-7.808 10.035-12.05z" fill="#60a4ff"/><path d="m381.312 130.688c6.33 23.705 2.302 49.601-12.087 70.517 12.705-4.863 24.617-12.412 34.858-22.653 10.872-10.872 18.714-23.627 23.525-37.215 6.759-19.087 7.539-39.818 2.34-59.285-19.467-5.198-40.198-4.419-59.285 2.34-13.588 4.812-26.343 12.653-37.215 23.525-10.241 10.241-17.79 22.153-22.653 34.858 20.916-14.389 46.812-18.417 70.517-12.087z" fill="#b278d3"/><path d="m333.448 107.917c10.872-10.872 23.627-18.714 37.215-23.525-1.06-20.22-8.271-39.671-20.523-55.666-19.973 2.647-38.827 11.302-53.874 24.85 6.206 13.01 9.68 27.574 9.68 42.95 0 14.483-3.085 28.244-8.631 40.666.936 5.063 1.426 10.283 1.427 15.618 3.773-3.771 7.811-7.116 12.053-10.034 4.864-12.706 12.412-24.618 22.653-34.859z" fill="#ff5a58"/><ellipse cx="256.001" cy="256" fill="#ffc144" rx="73.693" ry="73.693" transform="matrix(.973 -.23 .23 .973 -51.969 65.665)"/></g><path d="m510.656 261.007c1.792-3.098 1.792-6.917 0-10.015-9.151-15.819-21.98-28.838-37.034-38.227 10.468-14.624 17.174-31.552 19.565-49.592.471-3.548-.991-7.077-3.832-9.253-14.447-11.066-31.159-18.294-48.902-21.232 4.006-17.284 3.871-35.561-.843-53.218-.923-3.458-3.624-6.158-7.082-7.082-17.657-4.715-35.933-4.849-53.218-.843-2.939-17.743-10.166-34.456-21.232-48.902-2.177-2.842-5.706-4.301-9.253-3.833-18.04 2.391-34.968 9.097-49.592 19.566-9.389-15.055-22.408-27.883-38.227-37.034-3.097-1.792-6.917-1.791-10.015 0-15.819 9.151-28.838 21.979-38.227 37.034-14.624-10.469-31.552-17.175-49.591-19.566-3.551-.47-7.077.992-9.253 3.833-11.053 14.43-18.278 31.119-21.223 48.839-1.25-.288-2.505-.559-3.769-.804-5.423-1.05-10.669 2.492-11.721 7.914-1.051 5.422 2.492 10.67 7.914 11.721 17.599 3.412 33.63 11.944 46.358 24.673 1.906 1.906 3.694 3.896 5.405 5.937-13.911-3.625-28.639-4.138-43.051-1.232l-8.978-8.977c-3.905-3.905-10.237-3.905-14.142 0s-3.905 10.237 0 14.142l8.977 8.976c-2.906 14.412-2.393 29.14 1.232 43.051-2.041-1.712-4.031-3.499-5.936-5.405-9.575-9.574-16.773-21.017-21.205-33.59-.004-.01-.006-.02-.01-.03-1.456-4.134-2.615-8.389-3.459-12.741-1.051-5.422-6.298-8.968-11.72-7.915-5.422 1.051-8.965 6.298-7.915 11.72.245 1.265.516 2.522.804 3.774-17.72 2.945-34.41 10.17-48.839 21.222-2.841 2.176-4.303 5.705-3.833 9.253 2.391 18.04 9.097 34.968 19.566 49.592-15.055 9.389-27.883 22.408-37.034 38.227-1.792 3.098-1.792 6.917 0 10.015 9.151 15.819 21.979 28.838 37.034 38.227-10.469 14.624-17.175 31.552-19.566 49.592-.47 3.548.992 7.077 3.833 9.252 14.447 11.066 31.159 18.294 48.902 21.232-4.006 17.284-3.871 35.561.843 53.218.923 3.458 3.624 6.158 7.082 7.082 9.329 2.491 18.827 3.704 28.264 3.704 8.426 0 16.799-.975 24.953-2.865 2.938 17.745 10.166 34.458 21.232 48.906 1.907 2.49 4.851 3.919 7.938 3.919.437 0 .876-.028 1.315-.086 18.04-2.391 34.968-9.097 49.592-19.566 9.389 15.055 22.408 27.883 38.227 37.034 1.551.898 3.28 1.346 5.01 1.346 1.729 0 3.458-.448 5.007-1.344 15.819-9.151 28.838-21.979 38.227-37.034 14.624 10.469 31.552 17.175 49.591 19.566.44.058.879.086 1.315.086 3.086 0 6.031-1.43 7.937-3.919 11.067-14.448 18.295-31.161 21.233-48.906 8.154 1.89 16.527 2.865 24.953 2.865 9.436 0 18.938-1.214 28.264-3.704 3.458-.923 6.158-3.624 7.082-7.082 4.715-17.656 4.849-35.933.843-53.218 17.743-2.939 34.455-10.166 48.902-21.232 2.841-2.176 4.303-5.705 3.833-9.253-2.391-18.04-9.098-34.968-19.566-49.592 15.056-9.387 27.884-22.406 37.035-38.226zm-38.257-94.642c-2.707 13.617-8.48 26.311-16.928 37.287-12.578-4.935-26.119-7.598-39.996-7.598-6.26 0-12.436.526-18.502 1.554 5.017-3.563 9.755-7.558 14.182-11.984 9.813-9.813 17.504-21.27 22.909-33.654 13.734 1.787 26.792 6.681 38.335 14.395zm-216.399 255.03c-20.326-14.006-32.734-37.327-32.742-62.2 0-.002 0-.005 0-.007 0-.005 0-.011 0-.016 0-8.475 1.373-16.692 4.078-24.537 5.936 2.171 12.192 3.666 18.665 4.441v28.407c0 5.523 4.477 10 10 10s10-4.477 10-10v-28.407c6.474-.775 12.729-2.27 18.666-4.441 2.704 7.845 4.077 16.062 4.077 24.537-.001 24.881-12.411 48.212-32.744 62.223zm-103.193-198.137h.003.006.014c8.475 0 16.692 1.373 24.537 4.078-2.171 5.936-3.666 12.192-4.441 18.665h-28.407c-5.523 0-10 4.477-10 10s4.477 10 10 10h28.407c.775 6.474 2.27 12.729 4.441 18.665-7.845 2.704-16.062 4.077-24.538 4.077-.002 0-.004 0-.006 0-.008 0-.016 0-.024 0-24.871-.01-48.189-12.418-62.194-32.742 14.007-20.327 37.329-32.736 62.202-32.743zm70.451-70.429c0-24.882 12.41-48.213 32.743-62.224 20.326 14.006 32.734 37.327 32.742 62.2v.007.017c0 8.475-1.373 16.692-4.078 24.537-5.936-2.171-12.192-3.666-18.665-4.441v-28.407c0-5.523-4.477-10-10-10s-10 4.477-10 10v28.407c-6.474.775-12.729 2.27-18.665 4.441-2.704-7.845-4.077-16.062-4.077-24.537zm149.694-13.781c4.236 23.01-2.482 46.904-18.166 64.316-10.122.451-19.936 2.467-29.314 6.018-1.162-1.726-2.402-3.394-3.686-5.025l20.114-20.114c3.905-3.905 3.905-10.237 0-14.143s-10.237-3.905-14.143 0l-20.114 20.114c-1.632-1.284-3.299-2.524-5.026-3.686 3.551-9.379 5.567-19.193 6.018-29.315 17.413-15.682 41.307-22.399 64.317-18.165zm-116.951 180.645c-35.12 0-63.693-28.573-63.693-63.693s28.573-63.693 63.693-63.693 63.692 28.573 63.692 63.693-28.572 63.693-63.692 63.693zm-116.953 53.259c-4.236-23.01 2.482-46.904 18.166-64.316 10.122-.451 19.937-2.467 29.315-6.018 1.162 1.726 2.402 3.394 3.686 5.025l-20.115 20.115c-3.905 3.905-3.905 10.237 0 14.143 1.953 1.953 4.512 2.929 7.071 2.929s5.119-.976 7.071-2.929l20.115-20.115c1.632 1.284 3.299 2.524 5.025 3.686-3.551 9.379-5.567 19.193-6.018 29.315-17.412 15.684-41.304 22.401-64.316 18.165zm169.588-18.166c-.451-10.122-2.467-19.936-6.018-29.314 1.726-1.162 3.394-2.402 5.025-3.686l20.114 20.114c1.953 1.953 4.512 2.929 7.071 2.929s5.119-.976 7.071-2.929c3.905-3.905 3.905-10.237 0-14.143l-20.114-20.114c1.284-1.632 2.524-3.299 3.686-5.026 9.378 3.551 19.193 5.567 29.315 6.018 15.683 17.412 22.401 41.306 18.165 64.316-23.012 4.236-46.903-2.482-64.315-18.165zm50.557-66.044h-.001c-.007 0-.014 0-.021 0-8.475 0-16.692-1.373-24.537-4.077 2.171-5.936 3.666-12.192 4.441-18.665h28.407c5.523 0 10-4.477 10-10s-4.477-10-10-10h-28.407c-.775-6.474-2.27-12.729-4.441-18.666 7.845-2.704 16.062-4.077 24.537-4.077 24.882 0 48.213 12.41 62.224 32.743-14.006 20.327-37.328 32.735-62.202 32.742zm62.427-198.362c5.78 29.265-3.382 59.875-24.609 81.101-1.906 1.906-3.895 3.693-5.936 5.405 3.625-13.911 4.138-28.639 1.232-43.05l8.977-8.977c3.905-3.905 3.906-10.237 0-14.142s-10.237-3.905-14.142 0l-8.978 8.978c-14.412-2.906-29.14-2.393-43.05 1.232 1.712-2.041 3.499-4.031 5.405-5.937 21.227-21.228 51.836-30.392 81.101-24.61zm-75.985-50.778c7.713 11.542 12.608 24.601 14.396 38.336-12.383 5.404-23.841 13.096-33.654 22.908-4.427 4.427-8.421 9.165-11.984 14.182 1.028-6.067 1.554-12.242 1.554-18.502 0-13.877-2.663-27.418-7.598-39.995 10.976-8.449 23.671-14.222 37.286-16.929zm-89.634-17.824c24.78 16.606 39.946 44.729 39.946 74.748 0 2.703-.125 5.386-.359 8.047-7.274-12.411-17.332-23.198-29.587-31.34v-12.696c0-5.523-4.477-10-10-10s-10 4.477-10 10v12.696c-12.255 8.142-22.313 18.928-29.587 31.34-.234-2.661-.359-5.344-.359-8.047-.001-30.02 15.165-58.142 39.946-74.748zm-104.02 56.076c1.796-13.705 6.686-26.733 14.384-38.253 13.616 2.707 26.31 8.479 37.286 16.928-4.935 12.578-7.598 26.118-7.598 39.996 0 6.26.526 12.436 1.554 18.503-3.563-5.017-7.558-9.755-11.984-14.183-9.789-9.788-21.18-17.542-33.642-22.991zm51.383 79.36c.451 10.122 2.467 19.936 6.018 29.315-1.726 1.162-3.393 2.402-5.025 3.686l-20.115-20.115c-3.905-3.905-10.237-3.905-14.143 0s-3.905 10.237 0 14.143l20.115 20.115c-1.284 1.632-2.524 3.299-3.686 5.025-9.379-3.552-19.193-5.567-29.316-6.018-15.683-17.412-22.401-41.306-18.165-64.316 23.01-4.237 46.905 2.481 64.317 18.165zm-163.762 9.151c11.519-7.698 24.548-12.587 38.253-14.384 5.448 12.462 13.203 23.853 22.991 33.642 4.427 4.427 9.165 8.421 14.182 11.984-6.066-1.028-12.241-1.553-18.502-1.553-13.878 0-27.418 2.663-39.996 7.598-8.448-10.977-14.221-23.672-16.928-37.287zm-17.824 89.635c16.606-24.78 44.729-39.946 74.748-39.946 2.703 0 5.385.125 8.047.359-12.411 7.274-23.198 17.332-31.34 29.587h-12.696c-5.523 0-10 4.477-10 10s4.477 10 10 10h12.696c8.142 12.255 18.928 22.313 31.34 29.587-2.661.234-5.344.359-8.047.359-30.019 0-58.142-15.166-74.748-39.946zm17.824 89.635c2.707-13.615 8.48-26.31 16.928-37.286 12.578 4.935 26.119 7.598 39.996 7.598 6.26 0 12.436-.526 18.502-1.554-5.017 3.563-9.755 7.558-14.182 11.984-9.813 9.813-17.504 21.271-22.908 33.654-13.736-1.788-26.794-6.682-38.336-14.396zm50.778 75.985c-5.78-29.265 3.382-59.874 24.608-81.101 1.906-1.906 3.896-3.693 5.937-5.405-3.625 13.911-4.138 28.639-1.232 43.05l-8.977 8.977c-3.905 3.905-3.905 10.237 0 14.143 1.953 1.953 4.512 2.929 7.071 2.929s5.119-.976 7.071-2.929l8.977-8.977c6.248 1.26 12.555 1.883 18.831 1.883 8.198 0 16.339-1.061 24.219-3.114-1.711 2.04-3.498 4.029-5.403 5.935-21.228 21.227-51.837 30.39-81.102 24.609zm75.985 50.779c-7.711-11.539-12.605-24.594-14.394-38.325 12.385-5.405 23.839-13.107 33.652-22.92 4.427-4.427 8.422-9.165 11.985-14.182-1.028 6.066-1.554 12.241-1.554 18.502 0 13.877 2.663 27.418 7.598 39.996-10.977 8.448-23.672 14.221-37.287 16.929zm89.635 17.823c-24.78-16.606-39.946-44.729-39.946-74.748 0-2.703.125-5.385.359-8.047 7.274 12.411 17.332 23.198 29.587 31.34v12.696c0 5.523 4.477 10 10 10s10-4.477 10-10v-12.696c12.255-8.142 22.313-18.928 29.587-31.34.234 2.661.359 5.344.359 8.047.001 30.019-15.166 58.142-39.946 74.748zm89.635-17.823c-13.615-2.707-26.31-8.48-37.286-16.928 4.935-12.578 7.598-26.119 7.598-39.996 0-6.26-.526-12.436-1.554-18.502 3.563 5.017 7.558 9.755 11.984 14.182 9.814 9.814 21.268 17.516 33.652 22.92-1.788 13.73-6.682 26.784-14.394 38.324zm75.985-50.779c-29.263 5.782-59.874-3.381-81.101-24.609-1.905-1.905-3.692-3.894-5.403-5.934 7.879 2.053 16.02 3.114 24.218 3.114 6.275 0 12.583-.623 18.831-1.883l8.977 8.977c1.953 1.953 4.512 2.929 7.071 2.929s5.119-.976 7.071-2.929c3.905-3.905 3.905-10.237 0-14.143l-8.978-8.978c2.906-14.411 2.393-29.139-1.231-43.05 2.041 1.711 4.03 3.499 5.936 5.405 21.228 21.227 30.389 51.837 24.609 81.101zm50.779-75.985c-11.542 7.713-24.601 12.608-38.336 14.396-5.404-12.383-13.096-23.841-22.909-33.653-4.427-4.427-9.165-8.422-14.182-11.985 6.067 1.028 12.242 1.554 18.502 1.554 13.877 0 27.418-2.663 39.996-7.598 8.448 10.976 14.221 23.671 16.929 37.286zm-56.925-49.689c-2.703 0-5.386-.125-8.047-.359 12.411-7.274 23.198-17.332 31.34-29.587h12.696c5.523 0 10-4.477 10-10s-4.477-10-10-10h-12.696c-8.142-12.255-18.928-22.313-31.34-29.587 2.661-.234 5.344-.359 8.047-.359 30.019 0 58.142 15.167 74.749 39.946-16.607 24.78-44.73 39.946-74.749 39.946z"/><path d="m256 215.999c-5.523 0-10 4.481-10 10.004s4.477 10 10 10 10-4.477 10-10v-.007c0-5.524-4.477-9.997-10-9.997z"/><path d="m226.003 246h-.007c-5.523 0-9.997 4.477-9.997 10s4.481 10 10.004 10 10-4.477 10-10-4.477-10-10-10z"/><path d="m256 275.997c-5.523 0-10 4.477-10 10v.008c0 5.523 4.477 9.996 10 9.996s10-4.481 10-10.004-4.477-10-10-10z"/><path d="m285.997 246c-5.523 0-10 4.477-10 10s4.477 10 10 10h.008c5.523 0 9.996-4.477 9.996-10s-4.481-10-10.004-10z"/><path d="m82.059 92.052c5.523 0 10-4.477 10-10s-4.477-10-10-10h-.007c-5.523 0-9.996 4.477-9.996 10s4.48 10 10.003 10z"/></svg>