<svg id="Capa_1" enable-background="new 0 0 511.989 511.989" height="512" viewBox="0 0 511.989 511.989" width="512" xmlns="http://www.w3.org/2000/svg"><g clip-rule="evenodd" fill-rule="evenodd"><path d="m273.502 143.14c0-14.787 17.212-34.005 22.5-34.005s22.5 19.218 22.5 34.005c0 2.638-.472 5.194-1.337 7.58 15.626-8.004 26.469-24.518 26.469-42.913 0-31.304-36.437-71.989-47.632-71.989s-47.632 40.685-47.632 71.989c0 18.395 10.843 34.909 26.469 42.913-.865-2.386-1.337-4.942-1.337-7.58z" fill="#ffc144"/><path d="m296.002 109.135c-5.288 0-22.5 19.218-22.5 34.005 0 2.638.472 5.194 1.336 7.58 3.146 8.691 11.489 15.135 21.164 15.099 9.676.037 18.018-6.407 21.164-15.099.864-2.386 1.336-4.942 1.336-7.58 0-14.786-17.212-34.005-22.5-34.005z" fill="#ff9346"/><path d="m456.002 195.82h-320c0 13.814 1.754 27.217 5.046 40.001h309.908c3.293-12.784 5.046-26.187 5.046-40.001z" fill="#88df8e"/><path d="m450.956 235.821h-309.906c2.802 10.873 6.717 21.298 11.616 31.148 41.796-3.496 83.539 10.267 110.217 7.893 10.472-.932 73.98-7.896 84.454-8.828 10.929-.972 20.672 7.14 21.652 18.027.273 3.035-.225 5.725-1.306 8.119l66.36-15.432c7.424-12.637 13.166-26.381 16.913-40.927z" fill="#c68a65"/><path d="m347.337 266.034c-10.474.932-73.982 7.896-84.454 8.828-26.678 2.374-68.421-11.388-110.217-7.893-34.872 2.917-69.781 17.847-96.006 64.188l-.404.746 88.311 94.687 32.367-49.541 63.452 2.914c41.74 1.917 53.726.004 93.359-14.308 55.101-19.898 135.136-52.814 152.926-58.804 25.88-9.008 17.585-45.845-14.344-39.007l-38.286 8.903-66.36 15.432c1.08-2.394 1.579-5.084 1.306-8.119-.978-10.886-10.722-18.998-21.65-18.026z" fill="#f5c6af"/><path d="m144.568 426.591-88.311-94.687-5.237-5.615c-8.925-9.569-23.916-10.091-33.485-1.167-9.569 8.925-10.091 23.916-1.167 33.485l102.637 110.046c8.925 9.569 23.917 10.091 33.485 1.166 9.569-8.925 10.091-23.916 1.167-33.485z" fill="#ffc144"/></g><path d="m510.902 279.032c-3.776-13.483-18.108-25.798-40.668-20.965-.057.013-.113.025-.17.038l-17.541 4.079c8.852-20.889 13.479-43.475 13.479-66.364 0-5.522-4.478-10-10-10h-150v-11.598c4.732-1.559 9.098-4.228 12.777-7.893 2.508-2.498 4.573-5.379 6.152-8.49 17.545-10.448 28.703-29.701 28.703-50.032 0-21.543-13.535-42.9-21.604-53.713-4.949-6.633-22.174-28.275-36.028-28.275-13.855 0-31.08 21.643-36.029 28.275-8.068 10.813-21.604 32.17-21.604 53.713 0 20.321 11.161 39.584 28.703 50.032 1.579 3.11 3.644 5.991 6.151 8.49 3.684 3.67 8.056 6.341 12.778 7.899v11.592h-40c-5.522 0-10 4.478-10 10s4.478 10 10 10h199.666c-.449 6.737-1.364 13.418-2.705 20.002h-293.967c-1.332-6.567-2.23-13.238-2.67-20.002h9.677c5.522 0 10-4.478 10-10s-4.478-10-10-10h-20c-5.522 0-10 4.478-10 10 0 21.863 4.061 42.982 12.061 62.964-1.705.303-3.411.634-5.117 1.004-32.776 7.115-58.597 25.488-78.633 56.018-12.822-9.935-31.364-9.411-43.601 2.002-6.582 6.138-10.379 14.472-10.692 23.466s2.895 17.572 9.032 24.153l102.638 110.046c.001 0 .001.001.001.001 6.626 7.104 15.626 10.695 24.649 10.695 8.234 0 16.487-2.992 22.969-9.037 6.581-6.138 10.378-14.472 10.691-23.466s-2.894-17.571-9.031-24.152l-3.744-4.014 24.957-38.199 57.746 2.652c42.701 1.959 56.326-.127 97.215-14.893 31.643-11.426 71.18-27.012 102.948-39.535 22.748-8.968 42.395-16.713 49.772-19.196.032-.011.063-.022.096-.033 18.769-6.533 24.743-23.691 20.943-37.264zm-214.893-123.213c-.015 0-.03 0-.045 0s-.029 0-.044 0c-3.165 0-6.211-1.299-8.581-3.659-2.438-2.43-3.837-5.717-3.837-9.02 0-7.185 7.616-17.981 12.5-22.564 4.884 4.583 12.5 15.38 12.5 22.564 0 3.303-1.398 6.59-3.837 9.02-2.37 2.361-5.415 3.659-8.656 3.659zm-21.49-87.733c9.041-12.645 17.874-20.094 21.483-21.968 3.609 1.874 12.442 9.323 21.482 21.968 10.264 14.354 16.149 28.832 16.149 39.722 0 8.184-2.788 16.1-7.607 22.592-2.435-6.606-6.158-12.277-8.777-15.786-5.269-7.061-13.231-15.478-21.248-15.478-8.018 0-15.98 8.417-21.248 15.478-2.618 3.509-6.341 9.179-8.776 15.784-4.82-6.493-7.609-14.41-7.609-22.59.002-10.89 5.887-25.369 16.151-39.722zm-119.979 177.736h282.885c-2.696 7.635-6.002 15.058-9.918 22.18l-49.135 11.426c-3.175-14.466-16.739-24.71-31.923-23.354-5.318.474-23.3 2.393-42.337 4.425-18.172 1.939-36.962 3.945-42.117 4.403-10.763.956-24.841-1.082-41.141-3.442-19.263-2.789-40.369-5.843-62.031-4.91-1.57-3.535-3-7.111-4.283-10.728zm-8.873 216.685c-5.521 5.149-14.203 4.846-19.352-.675v.001l-102.635-110.046c-2.495-2.675-3.799-6.161-3.671-9.816.127-3.654 1.67-7.041 4.346-9.536 5.519-5.149 14.202-4.847 19.351.674l102.637 110.047c2.494 2.675 3.798 6.16 3.671 9.815-.129 3.655-1.672 7.04-4.347 9.536zm337.758-165.113c-7.891 2.662-26.774 10.105-50.669 19.525-31.648 12.476-71.036 28.003-102.406 39.331-38.492 13.899-49.364 15.564-89.504 13.725l-63.452-2.915c-3.563-.17-6.895 1.558-8.831 4.52l-25.387 38.857-74.52-79.901c40.288-65.063 100.605-56.339 149.333-49.283 16.811 2.436 32.69 4.736 45.779 3.57 5.33-.475 23.369-2.399 42.468-4.438 18.113-1.933 36.844-3.932 41.986-4.39 5.462-.499 10.318 3.533 10.806 8.963.153 1.697.559 6.208-11.979 11.438-26.754 11.156-55.177 20.512-77.979 25.669-5.387 1.219-8.766 6.573-7.548 11.96 1.219 5.387 6.574 8.765 11.96 7.548 23.876-5.4 53.495-15.138 81.266-26.718 9.646-4.022 15.675-8.89 19.317-13.891l100.438-23.356c10.595-2.245 15.803 2.046 17.14 6.817 1.28 4.577-.766 10.357-8.218 12.969z"/><path d="m201.006 205.82c5.522 0 10-4.478 10-10s-4.478-10-10-10h-.008c-5.522 0-9.996 4.478-9.996 10s4.482 10 10.004 10z"/></svg>